<svg width="221" height="145" viewBox="0 0 221 145" fill="none" xmlns="http://www.w3.org/2000/svg">
<path d="M1 120.66L16.856 107.323H80.9286L105.145 115.658L57.1439 144L1 120.66Z" fill="#D3A632" stroke="#8C2525" stroke-width="0.416787"/>
<path d="M19.1885 120.452L52.6438 64.0996L86.0991 120.452H19.1885Z" stroke="#8C2525" stroke-width="4.16787"/>
<rect x="39.3578" y="102.312" width="3.41821" height="4.30141" fill="#8C2525"/>
<rect x="43.9154" y="102.312" width="3.41821" height="4.30141" fill="#8C2525"/>
<rect x="48.473" y="102.312" width="3.41821" height="4.30141" fill="#8C2525"/>
<rect x="43.9154" y="107.474" width="3.41821" height="4.30141" fill="#8C2525"/>
<rect x="43.9154" y="112.635" width="3.41821" height="4.30141" fill="#8C2525"/>
<rect x="53.0306" y="102.312" width="3.41821" height="4.30141" fill="#8C2525"/>
<rect x="57.5882" y="102.312" width="3.41821" height="4.30141" fill="#8C2525"/>
<rect x="57.5882" y="107.474" width="3.41821" height="4.30141" fill="#8C2525"/>
<rect x="57.5882" y="112.635" width="3.41821" height="4.30141" fill="#8C2525"/>
<rect x="57.5882" y="97.15" width="3.41821" height="4.30141" fill="#8C2525"/>
<rect x="53.0306" y="97.15" width="3.41821" height="4.30141" fill="#8C2525"/>
<rect x="53.0306" y="107.474" width="3.41821" height="4.30141" fill="#D3A632"/>
<rect x="53.0306" y="112.635" width="3.41821" height="4.30141" fill="#D3A632"/>
<rect x="48.473" y="112.635" width="3.41821" height="4.30141" fill="#D3A632"/>
<rect x="53.0306" y="91.9883" width="3.41821" height="4.30141" fill="#8C2525"/>
<rect x="50.7517" y="86.8267" width="3.41821" height="4.30141" fill="#8C2525"/>
<rect x="48.473" y="97.15" width="3.41821" height="4.30141" fill="#8C2525"/>
<rect x="48.473" y="107.474" width="3.41821" height="4.30141" fill="#8C2525"/>
<rect x="43.9154" y="97.15" width="3.41821" height="4.30141" fill="#8C2525"/>
<rect x="48.473" y="91.9883" width="3.41821" height="4.30141" fill="#D3A632"/>
<rect x="62.1459" y="102.312" width="3.41821" height="4.30141" fill="#8C2525"/>
<rect x="69.3584" y="101.636" width="0.491992" height="27.8251" transform="rotate(90 69.3584 101.636)" fill="#8C2525"/>
<rect x="52.2152" y="79.6063" width="0.428579" height="29.5919" fill="#8C2525"/>
<path d="M46.2151 10.003H59.5011L56.9296 32.3011L59.5011 47.0971H46.2151L49.0009 32.3011L46.2151 10.003Z" fill="#8C2525"/>
<ellipse cx="53.0724" cy="53.9739" rx="4.28579" ry="3.95948" fill="#D3A632"/>
<path d="M23.0432 3.87528H25.6067V11.7492C25.6067 12.6333 25.3955 13.4069 24.9732 14.07C24.5549 14.7331 23.9688 15.2501 23.2149 15.6211C22.4611 15.9882 21.5829 16.1717 20.5804 16.1717C19.5739 16.1717 18.6938 15.9882 17.9399 15.6211C17.1861 15.2501 16.6 14.7331 16.1816 14.07C15.7633 13.4069 15.5541 12.6333 15.5541 11.7492V3.87528H18.1175V11.5302C18.1175 11.992 18.2182 12.4024 18.4195 12.7616C18.6247 13.1208 18.9128 13.403 19.2838 13.6082C19.6548 13.8134 20.087 13.9161 20.5804 13.9161C21.0777 13.9161 21.5099 13.8134 21.8769 13.6082C22.2479 13.403 22.5341 13.1208 22.7354 12.7616C22.9406 12.4024 23.0432 11.992 23.0432 11.5302V3.87528ZM25.6955 23.8753V36H23.4813L18.2064 28.3688H18.1175V36H15.5541V23.8753H17.8038L23.0373 31.5006H23.1439V23.8753H25.6955ZM19.8522 56H15.5541V43.8753H19.8877C21.1073 43.8753 22.1571 44.118 23.0373 44.6035C23.9174 45.085 24.5943 45.7777 25.0679 46.6815C25.5455 47.5853 25.7843 48.6668 25.7843 49.9258C25.7843 51.1888 25.5455 52.2742 25.0679 53.1819C24.5943 54.0897 23.9135 54.7863 23.0255 55.2718C22.1414 55.7573 21.0836 56 19.8522 56ZM18.1175 53.8036H19.7456C20.5034 53.8036 21.1408 53.6694 21.6579 53.401C22.1789 53.1287 22.5696 52.7083 22.8301 52.14C23.0945 51.5677 23.2267 50.8296 23.2267 49.9258C23.2267 49.0299 23.0945 48.2977 22.8301 47.7294C22.5696 47.161 22.1808 46.7427 21.6638 46.4743C21.1468 46.2059 20.5093 46.0717 19.7515 46.0717H18.1175V53.8036ZM15.5541 76V63.8753H23.724V65.9888H18.1175V68.8779H23.3037V70.9914H18.1175V73.8865H23.7477V76H15.5541ZM15.5541 96V83.8753H20.3376C21.2533 83.8753 22.0348 84.0391 22.6821 84.3667C23.3333 84.6903 23.8286 85.1501 24.1681 85.7461C24.5114 86.3381 24.6831 87.0347 24.6831 87.8359C24.6831 88.6411 24.5095 89.3338 24.1621 89.914C23.8148 90.4902 23.3116 90.9322 22.6525 91.2401C21.9973 91.548 21.204 91.7019 20.2725 91.7019H17.0697V89.6416H19.8581C20.3475 89.6416 20.754 89.5745 21.0777 89.4403C21.4013 89.3061 21.6421 89.1049 21.8 88.8365C21.9618 88.5681 22.0427 88.2346 22.0427 87.8359C22.0427 87.4334 21.9618 87.0939 21.8 86.8177C21.6421 86.5414 21.3994 86.3322 21.0718 86.1901C20.7481 86.0441 20.3396 85.9711 19.8463 85.9711H18.1175V96H15.5541ZM22.1019 90.4823L25.1153 96H22.2854L19.3371 90.4823H22.1019Z" fill="#8C2525"/>
<path d="M75.5386 51.8828H72.9455C72.8982 51.5473 72.8015 51.2493 72.6554 50.9888C72.5094 50.7244 72.3219 50.4994 72.093 50.3139C71.8641 50.1284 71.5997 49.9864 71.2997 49.8877C71.0037 49.789 70.682 49.7397 70.3347 49.7397C69.7071 49.7397 69.1605 49.8956 68.6948 50.2074C68.229 50.5152 67.8679 50.9652 67.6114 51.5572C67.3548 52.1453 67.2265 52.8597 67.2265 53.7003C67.2265 54.5647 67.3548 55.2909 67.6114 55.879C67.8719 56.4671 68.235 56.9111 68.7007 57.2111C69.1664 57.511 69.7052 57.661 70.3169 57.661C70.6603 57.661 70.978 57.6156 71.2701 57.5248C71.5661 57.4341 71.8286 57.3018 72.0575 57.1282C72.2864 56.9506 72.4759 56.7355 72.6258 56.4829C72.7798 56.2303 72.8863 55.9421 72.9455 55.6185L75.5386 55.6303C75.4715 56.1869 75.3038 56.7236 75.0354 57.2407C74.7709 57.7537 74.4138 58.2136 73.9638 58.6201C73.5178 59.0227 72.985 59.3424 72.3653 59.5792C71.7496 59.812 71.053 59.9285 70.2755 59.9285C69.194 59.9285 68.2271 59.6838 67.3746 59.1943C66.526 58.7049 65.855 57.9965 65.3617 57.069C64.8722 56.1415 64.6275 55.0186 64.6275 53.7003C64.6275 52.3781 64.8762 51.2533 65.3735 50.3258C65.8708 49.3983 66.5457 48.6918 67.3982 48.2063C68.2508 47.7169 69.2098 47.4722 70.2755 47.4722C70.978 47.4722 71.6293 47.5709 72.2292 47.7682C72.833 47.9656 73.3678 48.2537 73.8336 48.6326C74.2993 49.0075 74.6782 49.4673 74.9703 50.012C75.2663 50.5567 75.4557 51.1803 75.5386 51.8828ZM88.5188 53.7003C88.5188 55.0225 88.2682 56.1474 87.7669 57.0749C87.2696 58.0024 86.5908 58.7109 85.7304 59.2003C84.8739 59.6857 83.9109 59.9285 82.8413 59.9285C81.7638 59.9285 80.7968 59.6838 79.9403 59.1943C79.0839 58.7049 78.407 57.9965 77.9097 57.069C77.4124 56.1415 77.1637 55.0186 77.1637 53.7003C77.1637 52.3781 77.4124 51.2533 77.9097 50.3258C78.407 49.3983 79.0839 48.6918 79.9403 48.2063C80.7968 47.7169 81.7638 47.4722 82.8413 47.4722C83.9109 47.4722 84.8739 47.7169 85.7304 48.2063C86.5908 48.6918 87.2696 49.3983 87.7669 50.3258C88.2682 51.2533 88.5188 52.3781 88.5188 53.7003ZM85.9198 53.7003C85.9198 52.8439 85.7915 52.1216 85.535 51.5335C85.2824 50.9454 84.9252 50.4994 84.4634 50.1955C84.0016 49.8916 83.4609 49.7397 82.8413 49.7397C82.2216 49.7397 81.6809 49.8916 81.2191 50.1955C80.7573 50.4994 80.3982 50.9454 80.1416 51.5335C79.889 52.1216 79.7627 52.8439 79.7627 53.7003C79.7627 54.5568 79.889 55.2791 80.1416 55.8672C80.3982 56.4552 80.7573 56.9012 81.2191 57.2051C81.6809 57.509 82.2216 57.661 82.8413 57.661C83.4609 57.661 84.0016 57.509 84.4634 57.2051C84.9252 56.9012 85.2824 56.4552 85.535 55.8672C85.7915 55.2791 85.9198 54.5568 85.9198 53.7003ZM100.559 47.638V59.7627H98.345L93.07 52.1315H92.9812V59.7627H90.4177V47.638H92.6674L97.901 55.2633H98.0075V47.638H100.559ZM109.255 51.125C109.207 50.6474 109.004 50.2764 108.645 50.012C108.286 49.7476 107.798 49.6153 107.182 49.6153C106.764 49.6153 106.411 49.6745 106.123 49.793C105.835 49.9074 105.614 50.0673 105.46 50.2725C105.31 50.4777 105.235 50.7106 105.235 50.9711C105.227 51.1882 105.272 51.3776 105.371 51.5394C105.473 51.7013 105.614 51.8414 105.791 51.9598C105.969 52.0742 106.174 52.1749 106.407 52.2617C106.64 52.3446 106.888 52.4156 107.153 52.4748L108.242 52.7353C108.771 52.8537 109.257 53.0116 109.699 53.209C110.141 53.4063 110.523 53.649 110.847 53.9371C111.171 54.2253 111.421 54.5647 111.599 54.9554C111.781 55.3462 111.873 55.7941 111.877 56.2993C111.873 57.0413 111.684 57.6847 111.309 58.2293C110.938 58.7701 110.401 59.1904 109.699 59.4904C109 59.7864 108.157 59.9344 107.171 59.9344C106.192 59.9344 105.339 59.7844 104.613 59.4844C103.891 59.1845 103.326 58.7405 102.92 58.1524C102.517 57.5604 102.306 56.8282 102.286 55.956H104.767C104.795 56.3625 104.911 56.7019 105.116 56.9742C105.325 57.2426 105.604 57.4459 105.951 57.584C106.302 57.7182 106.699 57.7853 107.141 57.7853C107.575 57.7853 107.952 57.7222 108.272 57.5959C108.595 57.4696 108.846 57.2939 109.024 57.069C109.201 56.844 109.29 56.5855 109.29 56.2934C109.29 56.0211 109.209 55.7922 109.047 55.6067C108.889 55.4212 108.657 55.2633 108.349 55.133C108.045 55.0028 107.672 54.8844 107.23 54.7778L105.91 54.4463C104.887 54.1976 104.08 53.8089 103.488 53.28C102.896 52.7511 102.602 52.0387 102.606 51.1428C102.602 50.4087 102.798 49.7673 103.192 49.2187C103.591 48.6701 104.137 48.2418 104.832 47.934C105.527 47.6261 106.316 47.4722 107.2 47.4722C108.1 47.4722 108.886 47.6261 109.556 47.934C110.231 48.2418 110.756 48.6701 111.131 49.2187C111.506 49.7673 111.7 50.4027 111.711 51.125H109.255ZM113.14 49.7515V47.638H123.098V49.7515H119.386V59.7627H116.852V49.7515H113.14ZM124.738 59.7627V47.638H129.521C130.437 47.638 131.218 47.8018 131.866 48.1294C132.517 48.453 133.012 48.9128 133.352 49.5088C133.695 50.1008 133.867 50.7974 133.867 51.5986C133.867 52.4038 133.693 53.0965 133.346 53.6767C132.998 54.2529 132.495 54.6949 131.836 55.0028C131.181 55.3106 130.387 55.4646 129.456 55.4646H126.253V53.4043H129.042C129.531 53.4043 129.938 53.3372 130.261 53.203C130.585 53.0688 130.826 52.8676 130.983 52.5992C131.145 52.3308 131.226 51.9973 131.226 51.5986C131.226 51.1961 131.145 50.8566 130.983 50.5804C130.826 50.3041 130.583 50.0949 130.255 49.9528C129.932 49.8068 129.523 49.7338 129.03 49.7338H127.301V59.7627H124.738ZM131.285 54.245L134.299 59.7627H131.469L128.521 54.245H131.285ZM143.167 47.638H145.731V55.5119C145.731 56.396 145.52 57.1696 145.097 57.8327C144.679 58.4958 144.093 59.0128 143.339 59.3838C142.585 59.7509 141.707 59.9344 140.705 59.9344C139.698 59.9344 138.818 59.7509 138.064 59.3838C137.31 59.0128 136.724 58.4958 136.306 57.8327C135.887 57.1696 135.678 56.396 135.678 55.5119V47.638H138.242V55.2929C138.242 55.7547 138.342 56.1651 138.544 56.5243C138.749 56.8835 139.037 57.1657 139.408 57.3709C139.779 57.5761 140.211 57.6788 140.705 57.6788C141.202 57.6788 141.634 57.5761 142.001 57.3709C142.372 57.1657 142.658 56.8835 142.86 56.5243C143.065 56.1651 143.167 55.7547 143.167 55.2929V47.638ZM158.538 51.8828H155.945C155.897 51.5473 155.801 51.2493 155.655 50.9888C155.509 50.7244 155.321 50.4994 155.092 50.3139C154.863 50.1284 154.599 49.9864 154.299 49.8877C154.003 49.789 153.681 49.7397 153.334 49.7397C152.706 49.7397 152.16 49.8956 151.694 50.2074C151.228 50.5152 150.867 50.9652 150.611 51.5572C150.354 52.1453 150.226 52.8597 150.226 53.7003C150.226 54.5647 150.354 55.2909 150.611 55.879C150.871 56.4671 151.234 56.9111 151.7 57.2111C152.166 57.511 152.704 57.661 153.316 57.661C153.66 57.661 153.977 57.6156 154.269 57.5248C154.565 57.4341 154.828 57.3018 155.057 57.1282C155.286 56.9506 155.475 56.7355 155.625 56.4829C155.779 56.2303 155.886 55.9421 155.945 55.6185L158.538 55.6303C158.471 56.1869 158.303 56.7236 158.035 57.2407C157.77 57.7537 157.413 58.2136 156.963 58.6201C156.517 59.0227 155.984 59.3424 155.365 59.5792C154.749 59.812 154.052 59.9285 153.275 59.9285C152.193 59.9285 151.226 59.6838 150.374 59.1943C149.525 58.7049 148.854 57.9965 148.361 57.069C147.872 56.1415 147.627 55.0186 147.627 53.7003C147.627 52.3781 147.875 51.2533 148.373 50.3258C148.87 49.3983 149.545 48.6918 150.397 48.2063C151.25 47.7169 152.209 47.4722 153.275 47.4722C153.977 47.4722 154.629 47.5709 155.228 47.7682C155.832 47.9656 156.367 48.2537 156.833 48.6326C157.299 49.0075 157.677 49.4673 157.97 50.012C158.266 50.5567 158.455 51.1803 158.538 51.8828ZM159.914 49.7515V47.638H169.872V49.7515H166.16V59.7627H163.626V49.7515H159.914ZM174.076 47.638V59.7627H171.512V47.638H174.076ZM187.327 53.7003C187.327 55.0225 187.076 56.1474 186.575 57.0749C186.078 58.0024 185.399 58.7109 184.538 59.2003C183.682 59.6857 182.719 59.9285 181.649 59.9285C180.572 59.9285 179.605 59.6838 178.748 59.1943C177.892 58.7049 177.215 57.9965 176.718 57.069C176.22 56.1415 175.972 55.0186 175.972 53.7003C175.972 52.3781 176.22 51.2533 176.718 50.3258C177.215 49.3983 177.892 48.6918 178.748 48.2063C179.605 47.7169 180.572 47.4722 181.649 47.4722C182.719 47.4722 183.682 47.7169 184.538 48.2063C185.399 48.6918 186.078 49.3983 186.575 50.3258C187.076 51.2533 187.327 52.3781 187.327 53.7003ZM184.728 53.7003C184.728 52.8439 184.599 52.1216 184.343 51.5335C184.09 50.9454 183.733 50.4994 183.271 50.1955C182.81 49.8916 182.269 49.7397 181.649 49.7397C181.029 49.7397 180.489 49.8916 180.027 50.1955C179.565 50.4994 179.206 50.9454 178.95 51.5335C178.697 52.1216 178.571 52.8439 178.571 53.7003C178.571 54.5568 178.697 55.2791 178.95 55.8672C179.206 56.4552 179.565 56.9012 180.027 57.2051C180.489 57.509 181.029 57.661 181.649 57.661C182.269 57.661 182.81 57.509 183.271 57.2051C183.733 56.9012 184.09 56.4552 184.343 55.8672C184.599 55.2791 184.728 54.5568 184.728 53.7003ZM199.367 47.638V59.7627H197.153L191.878 52.1315H191.789V59.7627H189.226V47.638H191.475L196.709 55.2633H196.815V47.638H199.367Z" fill="#8C2525"/>
<path d="M91.4302 30.4255L52.6438 130.454L114.359 38.136L91.4302 30.4255Z" stroke="#8C2525" stroke-width="0.416787"/>
<rect x="49.4118" y="131.913" width="8.17838" height="5.00145" stroke="#8C2525" stroke-width="1.25036"/>
<path d="M48.7866 131.245L51.4805 129.204H60.7868L57.9949 131.245V131.288" stroke="#8C2525" stroke-width="0.416787"/>
<path d="M58.2153 137.54L61.2154 134.501L60.9734 129.204" stroke="#8C2525" stroke-width="0.416787"/>
<rect x="49.4118" y="125.661" width="8.17838" height="5.00145" stroke="#8C2525" stroke-width="1.25036"/>
<path d="M48.7866 124.993L51.4805 122.952H60.7868L57.9949 124.993V125.036" stroke="#8C2525" stroke-width="0.416787"/>
<path d="M58.2153 131.288L61.2154 128.249L60.9734 122.952" stroke="#8C2525" stroke-width="0.416787"/>
</svg>
