<svg width="1220" height="320" viewBox="0 0 1220 320" fill="none" xmlns="http://www.w3.org/2000/svg">
<rect x="20" width="1200" height="320" fill="#EDD3B5"/>
<rect x="41.7639" y="44.3529" width="28.4861" height="241.294" fill="#AC4B4B"/>
<path d="M177.852 246V67.7367H178.091L268.656 196.297L258.859 194.385L349.185 67.7367H349.663V246H326.723V120.308L328.157 132.017L262.921 224.255H262.443L196.252 132.017L200.314 121.263V246H177.852ZM399.309 73.2328H422.488V246H399.309V73.2328ZM599.004 233.096C596.136 235.008 592.233 237.159 587.295 239.548C582.356 241.938 576.541 243.929 569.851 245.522C563.319 247.115 556.15 247.912 548.344 247.912C534.963 247.752 522.855 245.363 512.023 240.743C501.349 236.123 492.269 229.83 484.781 221.865C477.294 213.9 471.479 204.74 467.337 194.385C463.355 183.871 461.363 172.719 461.363 160.931C461.363 148.027 463.434 136.159 467.576 125.326C471.877 114.334 477.851 104.855 485.498 96.8897C493.145 88.7651 502.146 82.4725 512.5 78.0119C523.015 73.5514 534.485 71.3211 546.911 71.3211C557.265 71.3211 566.664 72.7549 575.108 75.6223C583.551 78.3306 590.799 81.5963 596.853 85.4197L587.534 106.926C582.754 103.74 576.94 100.713 570.09 97.8455C563.399 94.978 555.911 93.5443 547.627 93.5443C539.184 93.5443 531.219 95.217 523.732 98.5624C516.244 101.908 509.633 106.607 503.898 112.661C498.163 118.715 493.623 125.804 490.277 133.928C487.091 141.894 485.498 150.496 485.498 159.736C485.498 169.135 486.932 177.897 489.799 186.021C492.826 193.987 497.048 200.916 502.464 206.811C508.04 212.705 514.731 217.325 522.537 220.67C530.343 224.016 539.105 225.689 548.822 225.689C557.584 225.689 565.39 224.334 572.24 221.626C579.09 218.918 584.746 215.891 589.206 212.546L599.004 233.096ZM683.914 73.2328C692.676 73.2328 700.721 74.4276 708.049 76.8172C715.536 79.0474 721.988 82.4725 727.405 87.0924C732.98 91.5529 737.282 97.1287 740.308 103.819C743.495 110.351 745.088 117.998 745.088 126.76C745.088 133.61 744.052 140.301 741.981 146.832C740.07 153.364 736.804 159.338 732.184 164.754C727.564 170.011 721.51 174.312 714.023 177.658C706.695 180.844 697.615 182.437 686.782 182.437H661.213V246H638.034V73.2328H683.914ZM686.304 160.214C693.154 160.214 698.809 159.178 703.27 157.107C707.89 155.036 711.474 152.408 714.023 149.222C716.572 145.876 718.404 142.292 719.519 138.469C720.634 134.645 721.192 131.061 721.192 127.715C721.192 124.211 720.555 120.626 719.28 116.962C718.165 113.139 716.253 109.634 713.545 106.448C710.996 103.262 707.571 100.633 703.27 98.5624C699.128 96.4914 694.03 95.4559 687.977 95.4559H661.213V160.214H686.304ZM714.74 173.357L759.903 246H733.14L687.26 174.073L714.74 173.357Z" fill="#142E29"/>
<path d="M1105.44 85.2112C1105.38 89.263 1104.85 92.5421 1103.8 94.9133L1039.99 261.013C1038.92 263.959 1036.78 266.109 1033.56 267.716C1030.59 269.206 1027.29 269.893 1024 269.712L869.572 257.252C856.175 256.171 848.548 251.499 846.411 243.226C845.552 239.978 845.75 237.527 847.154 235.762C848.547 234.142 850.706 233.449 853.782 233.697L999.128 245.425C1009.46 246.259 1016.87 244.835 1021.08 241.263C1025.31 237.704 1030.08 229.109 1035.22 215.802L1093.71 63.4412C1096.91 55.1527 1096.39 47.6003 1092.45 40.7699C1088.51 33.9523 1082.36 30.1217 1074.13 29.4575L946.774 19.1814C945.38 19.069 942.397 19.406 938.125 20.0724L938.311 19.5096C935.774 18.6327 933.128 18.1275 930.451 18.0087C928.301 17.9083 926.164 18.437 924.287 19.5335C922.528 20.5154 920.913 21.7511 919.492 23.2031C918.262 24.5482 917.148 26.1916 915.848 28.3978C914.706 30.3338 913.656 32.326 912.702 34.367C911.766 36.3471 910.763 38.2937 909.696 40.203C908.547 42.277 907.572 43.9316 906.481 45.288C905.714 46.1048 904.636 47.3057 903.406 48.6509C902.174 50.008 900.932 51.3522 900.004 52.4328C899.224 53.3213 898.617 54.3553 898.216 55.4783C897.856 56.4604 897.868 58.0502 898.124 60.093C898.38 62.1358 898.402 63.5941 898.321 64.5987C897.556 68.8702 895.571 74.3553 892.379 80.8985C889.176 87.4289 886.413 92.129 884.092 94.8305C882.831 96.0864 881.518 97.2857 880.156 98.4249C878.032 100.276 876.639 101.897 876.094 103.442C875.63 103.982 875.503 105.56 875.56 108.322C875.77 110.938 875.758 112.815 875.538 113.809C874.807 117.661 872.997 122.715 870.106 128.994C867.737 134.284 864.978 139.382 861.853 144.241C861.517 144.936 860.438 146.149 858.743 148.034C857.037 149.919 855.934 151.419 855.562 152.701C855.202 153.538 855.203 155.272 855.296 157.59C855.389 159.921 855.25 161.643 854.739 162.757C853.556 166.995 851.455 172.182 848.448 178.162C845.431 184.13 842.506 189.106 839.627 193.351C838.837 194.455 837.909 195.68 836.516 197.157C835.274 198.645 834.195 199.858 833.406 200.95C832.652 201.999 832.083 203.175 831.723 204.425C831.524 205.552 831.624 206.712 832.013 207.783C832.304 209.395 832.35 210.554 832.268 211.571C832.002 213.138 831.689 215.28 831.062 217.829C830.575 220.39 830.168 221.958 830.133 222.388C827.07 229.074 826.617 236.428 828.65 244.248C830.996 253.405 835.965 261.473 843.419 268.298C850.873 275.11 858.999 278.811 867.508 279.498L1021.92 291.957C1029.18 292.543 1036.21 290.643 1043.04 286.138C1049.86 281.634 1054.68 275.799 1057.36 268.637L1116 116.288C1119.18 108.166 1118.65 100.734 1114.72 93.7717C1112.64 89.9929 1109.63 87.2827 1105.44 85.2112Z" fill="#D3A632"/>
<rect x="892.751" y="154.326" width="15.8327" height="20.4872" transform="rotate(-1.39266 892.751 154.326)" fill="#142E29"/>
<rect x="913.855" y="153.813" width="15.8327" height="20.4872" transform="rotate(-1.39266 913.855 153.813)" fill="#142E29"/>
<rect x="934.958" y="153.3" width="15.8327" height="20.4872" transform="rotate(-1.39266 934.958 153.3)" fill="#142E29"/>
<rect x="914.452" y="178.391" width="15.8327" height="20.4872" transform="rotate(-1.39266 914.452 178.391)" fill="#142E29"/>
<rect x="915.05" y="202.968" width="15.8327" height="20.4872" transform="rotate(-1.39266 915.05 202.968)" fill="#142E29"/>
<rect x="956.062" y="152.787" width="15.8327" height="20.4872" transform="rotate(-1.39266 956.062 152.787)" fill="#142E29"/>
<rect x="977.166" y="152.274" width="15.8327" height="20.4872" transform="rotate(-1.39266 977.166 152.274)" fill="#142E29"/>
<rect x="977.763" y="176.851" width="15.8327" height="20.4872" transform="rotate(-1.39266 977.763 176.851)" fill="#142E29"/>
<rect x="978.361" y="201.429" width="15.8327" height="20.4872" transform="rotate(-1.39266 978.361 201.429)" fill="#142E29"/>
<rect x="976.568" y="127.696" width="15.8327" height="20.4872" transform="rotate(-1.39266 976.568 127.696)" fill="#142E29"/>
<rect x="955.465" y="128.209" width="15.8327" height="20.4872" transform="rotate(-1.39266 955.465 128.209)" fill="#8C2525"/>
<rect x="956.66" y="177.364" width="15.8327" height="20.4872" transform="rotate(-1.39266 956.66 177.364)" fill="#06041E"/>
<rect x="957.257" y="201.942" width="15.8327" height="20.4872" transform="rotate(-1.39266 957.257 201.942)" fill="#06041E"/>
<rect x="936.153" y="202.455" width="15.8327" height="20.4872" transform="rotate(-1.39266 936.153 202.455)" fill="#06041E"/>
<rect x="954.867" y="103.632" width="15.8327" height="20.4872" transform="rotate(-1.39266 954.867 103.632)" fill="#142E29"/>
<rect x="943.717" y="79.3112" width="15.8327" height="20.4872" transform="rotate(-1.39266 943.717 79.3112)" fill="#8C86D3"/>
<rect x="934.361" y="128.722" width="15.8327" height="20.4872" transform="rotate(-1.39266 934.361 128.722)" fill="#142E29"/>
<rect x="935.556" y="177.877" width="15.8327" height="20.4872" transform="rotate(-1.39266 935.556 177.877)" fill="#142E29"/>
<rect x="913.257" y="129.235" width="15.8327" height="20.4872" transform="rotate(-1.39266 913.257 129.235)" fill="#142E29"/>
<rect x="933.763" y="104.145" width="15.8327" height="20.4872" transform="rotate(-1.39266 933.763 104.145)" fill="#D3A632"/>
<rect x="998.27" y="151.761" width="15.8327" height="20.4872" transform="rotate(-1.39266 998.27 151.761)" fill="#142E29"/>
<rect x="1031.59" y="147.73" width="2.34331" height="128.882" transform="rotate(88.6073 1031.59 147.73)" fill="#8C2525"/>
<rect x="949.425" y="26.9012" width="2.34331" height="157.939" transform="rotate(-1.39266 949.425 26.9012)" fill="#8C2525"/>
<path d="M407.013 264.124H413.04V266.645H409.853V287.854H413.04V290.375H407.013V264.124ZM417.511 286V264.385H417.54L428.521 279.973L427.333 279.742L438.286 264.385H438.344V286H435.562V270.759L435.736 272.179L427.826 283.363H427.768L419.742 272.179L420.235 270.875V286H417.511ZM444.711 291.766L452.621 274.005H455.113L447.377 291.766H444.711ZM447.666 286.087L441.9 274.005H444.943L449.781 284.725L447.666 286.087ZM478.317 268.789C477.602 268.422 476.82 268.103 475.97 267.833C475.12 267.563 474.289 267.427 473.478 267.427C472.358 267.427 471.46 267.688 470.784 268.21C470.127 268.731 469.798 269.427 469.798 270.296C469.798 270.953 470.011 271.513 470.436 271.976C470.861 272.421 471.421 272.807 472.116 273.135C472.812 273.464 473.536 273.773 474.289 274.063C474.946 274.314 475.593 274.594 476.231 274.903C476.868 275.212 477.438 275.598 477.94 276.062C478.462 276.525 478.867 277.095 479.157 277.771C479.466 278.447 479.621 279.288 479.621 280.292C479.621 281.393 479.341 282.398 478.781 283.305C478.24 284.213 477.457 284.928 476.434 285.449C475.41 285.971 474.193 286.232 472.783 286.232C471.856 286.232 470.967 286.126 470.117 285.913C469.287 285.701 468.514 285.43 467.799 285.102C467.085 284.754 466.447 284.397 465.887 284.03L467.133 281.828C467.596 282.156 468.128 282.475 468.726 282.784C469.325 283.074 469.953 283.315 470.61 283.508C471.266 283.682 471.904 283.769 472.522 283.769C473.179 283.769 473.826 283.653 474.463 283.421C475.12 283.17 475.661 282.793 476.086 282.291C476.511 281.789 476.723 281.123 476.723 280.292C476.723 279.577 476.53 278.988 476.144 278.525C475.777 278.042 475.284 277.636 474.666 277.308C474.048 276.96 473.391 276.651 472.696 276.38C472.039 276.129 471.373 275.859 470.697 275.569C470.021 275.26 469.393 274.893 468.813 274.468C468.234 274.024 467.77 273.483 467.423 272.846C467.075 272.208 466.901 271.436 466.901 270.528C466.901 269.427 467.162 268.47 467.683 267.659C468.224 266.829 468.958 266.181 469.885 265.718C470.813 265.235 471.875 264.974 473.073 264.936C474.425 264.936 475.613 265.1 476.636 265.428C477.68 265.757 478.597 266.162 479.389 266.645L478.317 268.789ZM483.678 274.005H486.373V286H483.678V274.005ZM483.475 269.658C483.475 269.233 483.639 268.876 483.968 268.586C484.316 268.297 484.692 268.152 485.098 268.152C485.504 268.152 485.861 268.297 486.17 268.586C486.498 268.876 486.662 269.233 486.662 269.658C486.662 270.103 486.498 270.47 486.17 270.759C485.861 271.03 485.504 271.165 485.098 271.165C484.692 271.165 484.316 271.02 483.968 270.73C483.639 270.441 483.475 270.083 483.475 269.658ZM493.44 274.005L493.701 277.482L493.556 277.018C493.865 276.284 494.309 275.666 494.889 275.164C495.487 274.642 496.105 274.246 496.743 273.976C497.4 273.686 497.969 273.541 498.452 273.541L498.307 276.207C497.4 276.149 496.598 276.323 495.903 276.728C495.227 277.134 494.686 277.675 494.28 278.351C493.894 279.027 493.701 279.751 493.701 280.524V286H491.035V274.005H493.44ZM507.057 290.375H501.059V287.854H504.247V266.616H501.059V264.124H507.057V290.375Z" fill="#8C2525"/>
<path d="M457.203 278.583H462.621V280.958H457.203V278.583Z" fill="#D3A632"/>
<rect x="542.54" y="110.079" width="2.47619" height="4.12698" fill="#860B0B"/>
<rect x="544.19" y="101" width="4.12698" height="4.12698" fill="#860B0B"/>
<rect x="540.064" y="119.159" width="2.47619" height="4.12698" fill="#860B0B"/>
<rect x="534.286" y="128.238" width="2.47619" height="4.12698" fill="#860B0B"/>
<rect x="537.587" y="128.238" width="2.47619" height="4.12698" fill="#860B0B"/>
<rect x="540.889" y="128.238" width="2.47619" height="4.12698" fill="#860B0B"/>
<rect x="544.19" y="128.238" width="2.47619" height="4.12698" fill="#860B0B"/>
<rect x="547.492" y="128.238" width="2.47619" height="4.12698" fill="#860B0B"/>
<rect x="550.794" y="128.238" width="2.47619" height="4.12698" fill="#860B0B"/>
<rect x="554.095" y="128.238" width="2.47619" height="4.12698" fill="#860B0B"/>
<rect x="557.397" y="128.238" width="2.47619" height="4.12698" fill="#860B0B"/>
<rect x="560.698" y="128.238" width="2.47619" height="4.12698" fill="#860B0B"/>
<rect x="528.508" y="137.317" width="2.47619" height="4.12698" fill="#860B0B"/>
<rect x="521.079" y="146.397" width="2.47619" height="4.12698" fill="#860B0B"/>
<rect x="524.381" y="146.397" width="2.47619" height="4.12698" fill="#860B0B"/>
<rect x="527.683" y="146.397" width="2.47619" height="4.12698" fill="#860B0B"/>
<rect x="530.984" y="146.397" width="2.47619" height="4.12698" fill="#860B0B"/>
<rect x="534.286" y="146.397" width="2.47619" height="4.12698" fill="#860B0B"/>
<rect x="537.587" y="146.397" width="2.47619" height="4.12698" fill="#860B0B"/>
<rect x="540.889" y="146.397" width="2.47619" height="4.12698" fill="#AF8008"/>
<rect x="544.19" y="146.397" width="2.47619" height="4.12698" fill="#FBFAFA"/>
<rect x="547.492" y="146.397" width="2.47619" height="4.12698" fill="#EFD80C"/>
<rect x="550.794" y="146.397" width="2.47619" height="4.12698" fill="#AF8008"/>
<rect x="554.095" y="146.397" width="2.47619" height="4.12698" fill="#860B0B"/>
<rect x="557.397" y="146.397" width="2.47619" height="4.12698" fill="#860B0B"/>
<rect x="560.698" y="146.397" width="2.47619" height="4.12698" fill="#860B0B"/>
<rect x="564" y="146.397" width="2.47619" height="4.12698" fill="#860B0B"/>
<rect x="567.302" y="146.397" width="2.47619" height="4.12698" fill="#860B0B"/>
<rect x="566.476" y="155.476" width="2.47619" height="4.12698" fill="#860B0B"/>
<rect x="569.778" y="155.476" width="2.47619" height="4.12698" fill="#860B0B"/>
<rect x="520.254" y="155.476" width="2.47619" height="4.12698" fill="#860B0B"/>
<rect x="523.556" y="155.476" width="2.47619" height="4.12698" fill="#860B0B"/>
<rect x="526.857" y="155.476" width="2.47619" height="4.12698" fill="#860B0B"/>
<rect x="530.159" y="155.476" width="2.47619" height="4.12698" fill="#860B0B"/>
<rect x="533.46" y="155.476" width="2.47619" height="4.12698" fill="#860B0B"/>
<rect x="536.762" y="155.476" width="2.47619" height="4.12698" fill="#AF8008"/>
<rect x="540.064" y="155.476" width="2.47619" height="4.12698" fill="#EFD80C"/>
<rect x="543.365" y="155.476" width="2.47619" height="4.12698" fill="#FBFAFA"/>
<rect x="546.667" y="155.476" width="2.47619" height="4.12698" fill="#FBFAFA"/>
<rect x="549.968" y="155.476" width="2.47619" height="4.12698" fill="#FBFAFA"/>
<rect x="553.27" y="155.476" width="2.47619" height="4.12698" fill="#EFD80C"/>
<rect x="556.571" y="155.476" width="2.47619" height="4.12698" fill="#AF8008"/>
<rect x="559.873" y="155.476" width="2.47619" height="4.12698" fill="#860B0B"/>
<rect x="563.175" y="155.476" width="2.47619" height="4.12698" fill="#860B0B"/>
<rect x="521.905" y="164.556" width="2.47619" height="4.12698" fill="#860B0B"/>
<rect x="518.603" y="164.556" width="2.47619" height="4.12698" fill="#860B0B"/>
<rect x="515.302" y="164.556" width="2.47619" height="4.12698" fill="#860B0B"/>
<rect x="525.206" y="164.556" width="2.47619" height="4.12698" fill="#860B0B"/>
<rect x="528.508" y="164.556" width="2.47619" height="4.12698" fill="#860B0B"/>
<rect x="531.81" y="164.556" width="2.47619" height="4.12698" fill="#AF8008"/>
<rect x="535.111" y="164.556" width="2.47619" height="4.12698" fill="#AF8008"/>
<rect x="538.413" y="164.556" width="2.47619" height="4.12698" fill="#EFD80C"/>
<rect x="541.714" y="164.556" width="2.47619" height="4.12698" fill="#FBFAFA"/>
<rect x="545.016" y="164.556" width="2.47619" height="4.12698" fill="#1E0CEF"/>
<rect x="548.317" y="164.556" width="2.47619" height="4.12698" fill="#FBFAFA"/>
<rect x="551.619" y="164.556" width="2.47619" height="4.12698" fill="#EFD80C"/>
<rect x="554.921" y="164.556" width="2.47619" height="4.12698" fill="#AF8008"/>
<rect x="558.222" y="164.556" width="2.47619" height="4.12698" fill="#AF8008"/>
<rect x="526.857" y="173.635" width="2.47619" height="4.12698" fill="#860B0B"/>
<rect x="530.159" y="173.635" width="2.47619" height="4.12698" fill="#860B0B"/>
<rect x="533.46" y="173.635" width="2.47619" height="4.12698" fill="#860B0B"/>
<rect x="536.762" y="173.635" width="2.47619" height="4.12698" fill="#860B0B"/>
<rect x="540.064" y="173.635" width="2.47619" height="4.12698" fill="#860B0B"/>
<rect x="543.365" y="173.635" width="2.47619" height="4.12698" fill="#860B0B"/>
<rect x="546.667" y="173.635" width="2.47619" height="4.12698" fill="#860B0B"/>
<rect x="549.968" y="173.635" width="2.47619" height="4.12698" fill="#860B0B"/>
<rect x="553.27" y="173.635" width="2.47619" height="4.12698" fill="#860B0B"/>
<rect x="556.571" y="173.635" width="2.47619" height="4.12698" fill="#860B0B"/>
<rect x="559.873" y="173.635" width="2.47619" height="4.12698" fill="#860B0B"/>
<rect x="563.175" y="173.635" width="2.47619" height="4.12698" fill="#860B0B"/>
<rect x="526.857" y="173.635" width="2.47619" height="4.12698" fill="#860B0B"/>
<rect x="523.556" y="173.635" width="2.47619" height="4.12698" fill="#860B0B"/>
<rect x="520.254" y="173.635" width="2.47619" height="4.12698" fill="#860B0B"/>
<rect x="516.952" y="173.635" width="2.47619" height="4.12698" fill="#860B0B"/>
<rect x="516.952" y="181.889" width="2.47619" height="4.12698" fill="#860B0B"/>
<rect x="517.778" y="191.794" width="3.30159" height="4.12698" fill="#860B0B"/>
<rect x="512" y="200.873" width="4.12698" height="4.12698" fill="#860B0B"/>
<rect x="516.952" y="200.873" width="4.12698" height="4.12698" fill="#860B0B"/>
<rect x="521.905" y="200.873" width="4.12698" height="4.12698" fill="#860B0B"/>
<rect x="526.857" y="200.873" width="4.12698" height="4.12698" fill="#860B0B"/>
<rect x="531.81" y="200.873" width="4.12698" height="4.12698" fill="#860B0B"/>
<rect x="536.762" y="200.873" width="4.12698" height="4.12698" fill="#860B0B"/>
<rect x="512" y="200.873" width="4.12698" height="4.12698" fill="#860B0B"/>
<rect x="516.952" y="200.873" width="4.12698" height="4.12698" fill="#860B0B"/>
<rect x="521.905" y="200.873" width="4.12698" height="4.12698" fill="#860B0B"/>
<rect x="526.857" y="200.873" width="4.12698" height="4.12698" fill="#860B0B"/>
<rect x="531.81" y="200.873" width="4.12698" height="4.12698" fill="#860B0B"/>
<rect x="536.762" y="200.873" width="4.12698" height="4.12698" fill="#860B0B"/>
<rect x="541.714" y="200.873" width="4.12698" height="4.12698" fill="#860B0B"/>
<rect x="546.667" y="200.873" width="4.12698" height="4.12698" fill="#860B0B"/>
<rect x="551.619" y="200.873" width="4.12698" height="4.12698" fill="#860B0B"/>
<rect x="556.571" y="200.873" width="4.12698" height="4.12698" fill="#860B0B"/>
<rect x="561.524" y="200.873" width="4.12698" height="4.12698" fill="#860B0B"/>
<rect x="566.476" y="200.873" width="4.12698" height="4.12698" fill="#860B0B"/>
<rect x="522.73" y="191.794" width="3.30159" height="4.12698" fill="#860B0B"/>
<rect x="527.683" y="191.794" width="3.30159" height="4.12698" fill="#860B0B"/>
<rect x="532.635" y="191.794" width="3.30159" height="4.12698" fill="#EFD80C"/>
<rect x="537.587" y="191.794" width="3.30159" height="4.12698" fill="#FBFAFA"/>
<rect x="542.54" y="191.794" width="3.30159" height="4.12698" fill="#1E0CEF"/>
<rect x="547.492" y="191.794" width="3.30159" height="4.12698" fill="#1E0CEF"/>
<rect x="552.444" y="191.794" width="3.30159" height="4.12698" fill="#FBFAFA"/>
<rect x="557.397" y="191.794" width="3.30159" height="4.12698" fill="#EFD80C"/>
<rect x="562.349" y="191.794" width="3.30159" height="4.12698" fill="#860B0B"/>
<rect x="567.302" y="191.794" width="3.30159" height="4.12698" fill="#860B0B"/>
<rect x="572.254" y="191.794" width="3.30159" height="4.12698" fill="#860B0B"/>
<rect x="577.206" y="191.794" width="3.30159" height="4.12698" fill="#860B0B"/>
<rect x="520.254" y="181.889" width="2.47619" height="4.12698" fill="#860B0B"/>
<rect x="523.556" y="181.889" width="2.47619" height="4.12698" fill="#860B0B"/>
<rect x="526.857" y="181.889" width="2.47619" height="4.12698" fill="#860B0B"/>
<rect x="530.159" y="181.889" width="2.47619" height="4.12698" fill="#860B0B"/>
<rect x="533.46" y="181.889" width="2.47619" height="4.12698" fill="#EFD80C"/>
<rect x="536.762" y="181.889" width="2.47619" height="4.12698" fill="#FBFAFA"/>
<rect x="540.064" y="181.889" width="2.47619" height="4.12698" fill="#1E0CEF"/>
<rect x="543.365" y="181.889" width="2.47619" height="4.12698" fill="#1E0CEF"/>
<rect x="546.667" y="181.889" width="2.47619" height="4.12698" fill="#1E0CEF"/>
<rect x="549.968" y="181.889" width="2.47619" height="4.12698" fill="#1E0CEF"/>
<rect x="553.27" y="181.889" width="2.47619" height="4.12698" fill="#FBFAFA"/>
<rect x="556.571" y="181.889" width="2.47619" height="4.12698" fill="#EFD80C"/>
<rect x="559.873" y="181.889" width="2.47619" height="4.12698" fill="#860B0B"/>
<rect x="563.175" y="181.889" width="2.47619" height="4.12698" fill="#860B0B"/>
<rect x="566.476" y="181.889" width="2.47619" height="4.12698" fill="#860B0B"/>
<rect x="569.778" y="181.889" width="2.47619" height="4.12698" fill="#860B0B"/>
<rect x="573.079" y="181.889" width="2.47619" height="4.12698" fill="#860B0B"/>
<rect x="576.381" y="181.889" width="2.47619" height="4.12698" fill="#860B0B"/>
<rect x="530.159" y="173.635" width="2.47619" height="4.12698" fill="#860B0B"/>
<rect x="533.46" y="173.635" width="2.47619" height="4.12698" fill="#EFD80C"/>
<rect x="536.762" y="173.635" width="2.47619" height="4.12698" fill="#FBFAFA"/>
<rect x="540.064" y="173.635" width="2.47619" height="4.12698" fill="#1E0CEF"/>
<rect x="543.365" y="173.635" width="2.47619" height="4.12698" fill="#1E0CEF"/>
<rect x="546.667" y="173.635" width="2.47619" height="4.12698" fill="#1E0CEF"/>
<rect x="549.968" y="173.635" width="2.47619" height="4.12698" fill="#1E0CEF"/>
<rect x="553.27" y="173.635" width="2.47619" height="4.12698" fill="#FBFAFA"/>
<rect x="556.571" y="173.635" width="2.47619" height="4.12698" fill="#EFD80C"/>
<rect x="559.873" y="173.635" width="2.47619" height="4.12698" fill="#860B0B"/>
<rect x="563.175" y="173.635" width="2.47619" height="4.12698" fill="#860B0B"/>
<rect x="566.476" y="173.635" width="2.47619" height="4.12698" fill="#860B0B"/>
<rect x="569.778" y="173.635" width="2.47619" height="4.12698" fill="#860B0B"/>
<rect x="573.905" y="173.635" width="2.47619" height="4.12698" fill="#860B0B"/>
<rect x="561.524" y="164.556" width="2.47619" height="4.12698" fill="#860B0B"/>
<rect x="564.825" y="164.556" width="2.47619" height="4.12698" fill="#860B0B"/>
<rect x="568.127" y="164.556" width="2.47619" height="4.12698" fill="#860B0B"/>
<rect x="571.429" y="164.556" width="2.47619" height="4.12698" fill="#860B0B"/>
<rect x="531.81" y="137.317" width="2.47619" height="4.12698" fill="#860B0B"/>
<rect x="535.111" y="137.317" width="2.47619" height="4.12698" fill="#860B0B"/>
<rect x="538.413" y="137.317" width="2.47619" height="4.12698" fill="#860B0B"/>
<rect x="541.714" y="137.317" width="2.47619" height="4.12698" fill="#AF8008"/>
<rect x="545.016" y="137.317" width="2.47619" height="4.12698" fill="#AF8008"/>
<rect x="548.317" y="137.317" width="2.47619" height="4.12698" fill="#AF8008"/>
<rect x="551.619" y="137.317" width="2.47619" height="4.12698" fill="#860B0B"/>
<rect x="554.921" y="137.317" width="2.47619" height="4.12698" fill="#860B0B"/>
<rect x="558.222" y="137.317" width="2.47619" height="4.12698" fill="#860B0B"/>
<rect x="561.524" y="137.317" width="2.47619" height="4.12698" fill="#860B0B"/>
<rect x="561.524" y="137.317" width="2.47619" height="4.12698" fill="#860B0B"/>
<rect x="564.825" y="137.317" width="2.47619" height="4.12698" fill="#860B0B"/>
<rect x="545.841" y="110.079" width="2.47619" height="4.12698" fill="#860B0B"/>
<rect x="543.365" y="119.159" width="2.47619" height="4.12698" fill="#860B0B"/>
<rect x="546.667" y="119.159" width="2.47619" height="4.12698" fill="#860B0B"/>
<rect x="549.968" y="119.159" width="2.47619" height="4.12698" fill="#860B0B"/>
<rect x="553.27" y="119.159" width="2.47619" height="4.12698" fill="#860B0B"/>
<rect x="556.571" y="119.159" width="2.47619" height="4.12698" fill="#860B0B"/>
<rect x="549.143" y="110.079" width="2.47619" height="4.12698" fill="#860B0B"/>
<rect x="572.254" y="200.873" width="4.12698" height="4.12698" fill="#860B0B"/>
<rect x="577.206" y="200.873" width="4.12698" height="4.12698" fill="#860B0B"/>
<rect x="582.159" y="200.873" width="4.12698" height="4.12698" fill="#860B0B"/>
<path d="M47.0611 192.637L46.9842 125.953L104.773 159.228L47.0611 192.637Z" stroke="#D3A632" stroke-width="10"/>
<rect x="1185" width="35" height="33" fill="#AC4B4B"/>
<rect x="1208" y="33" width="5" height="140" fill="#AC4B4B"/>
<rect x="1198" y="33" width="5" height="37" fill="#AC4B4B"/>
</svg>
